<?xml version="1.0" encoding="UTF-8"?>
<!DOCTYPE svg PUBLIC "-//W3C//DTD SVG 1.1//EN" "http://www.w3.org/Graphics/SVG/1.1/DTD/svg11.dtd">
<!-- Creator: CorelDRAW X5 -->
<svg xmlns="http://www.w3.org/2000/svg" xml:space="preserve" width="190.4mm" height="130mm" style="shape-rendering:geometricPrecision; text-rendering:geometricPrecision; image-rendering:optimizeQuality; fill-rule:evenodd; clip-rule:evenodd"
viewBox="0 0 19040 13000"
 xmlns:xlink="http://www.w3.org/1999/xlink"
 enable-background="new 0 0 1000 682.7737427">
 <defs>
  <style type="text/css">
   <![CDATA[
    .fil0 {fill:#753C94}
    .fil1 {fill:white}
   ]]>
  </style>
 </defs>
 <g id="Layer_x0020_1">
  <metadata id="CorelCorpID_0Corel-Layer"/>
  <path class="fil0" d="M6857 10306c2087,238 4228,-347 5357,-467 320,-34 558,-11 694,93 205,157 200,354 31,707 -174,361 54,522 453,385 1023,-352 3096,-2202 2795,-4867 -306,-2705 -2834,-4465 -6658,-4202 -3888,268 -6411,2261 -6687,4532 -171,1413 844,3457 4015,3819l0 0z"/>
  <path class="fil1" d="M6693 6697l-433 -736 -433 736 866 0 0 0zm1001 693c69,118 29,270 -89,340 -2,1 -4,2 -6,3 -39,22 -83,34 -128,33 -91,0 -176,-47 -223,-126l-259 -441 -1457 0 -260 441c-71,120 -228,161 -351,92 -120,-65 -164,-215 -99,-335 1,-3 3,-5 4,-8l330 -561 1 -2 880 -1494c46,-78 131,-126 223,-126 92,0 177,48 223,126l879 1493 2 4c0,0 330,560 330,560zm1874 -911l875 -854c98,-95 101,-251 6,-349 -2,-2 -4,-4 -6,-6 -101,-98 -262,-98 -364,0l-876 854 -875 -854c-101,-98 -263,-98 -364,0 -98,95 -100,252 -5,350 2,2 3,3 5,5l875 855 -876 855c-98,95 -100,252 -5,350 1,2 3,3 5,5 51,50 116,74 182,74 67,0 132,-24 182,-74l875 -855 876 855c50,50 116,74 182,74 68,0 133,-26 182,-74 98,-94 101,-250 7,-348 -2,-2 -4,-4 -7,-7 0,0 -875,-855 -875,-855zm1442 -1283c-142,0 -257,113 -257,251l0 2069c0,139 115,251 257,251 142,0 257,-112 257,-251l0 -2069c0,-138 -115,-251 -257,-251zm3284 1803c0,424 -353,768 -787,768l-1658 0c-143,0 -258,-112 -258,-251 0,-139 115,-251 258,-251l1658 0c150,0 272,-119 272,-266 0,-147 -122,-265 -272,-265l-1199 0c-434,0 -787,-345 -787,-768 0,-423 353,-768 787,-768l1652 0c142,0 257,112 257,251 0,139 -115,251 -257,251l-1652 0c-151,0 -272,119 -272,266 0,147 122,266 272,266l1199 0c434,0 787,344 787,768z"/>
 </g>
</svg>
